<?xml version="1.0" encoding="UTF-8" standalone="no"?>
<!DOCTYPE svg PUBLIC "-//W3C//DTD SVG 1.1//EN" "http://www.w3.org/Graphics/SVG/1.1/DTD/svg11.dtd">
<svg version="1.1" xmlns="http://www.w3.org/2000/svg" xmlns:xlink="http://www.w3.org/1999/xlink" preserveAspectRatio="xMidYMid meet" viewBox="0 0 640 640" width="1024" height="1024"><defs><path d="M48.87 108.33L630.5 108.33L630.5 453.23L48.87 453.23L48.87 108.33Z" id="gZkrfUBs"></path><path d="M429.67 453.23L422.58 432.14L394.92 371.86L377.9 359.8L369.38 347.04L354.49 336.4L348.82 329.31L327.54 313.7L334.63 298.1L343.14 288.88L351.65 273.28L348.82 256.26L343.14 254.84L345.98 247.04L345.98 221.5L334.63 203.06L322.58 190.3L304.85 183.21L273.64 186.75L255.91 207.32L243.14 237.11L245.27 254.84L238.89 259.09L236.76 267.6L238.89 281.08L246.69 290.51L245.27 300.94L215.48 322.92L197.04 347.04L170.8 355.55L158.75 366.19L111.94 449.16" id="d1JpZXvaZq"></path><path d="" id="b18sPdXPiT"></path><path d="M110.16 453.54C110.5 452.73 111.17 451.12 112.19 448.7" id="c4y3sfhXuZ"></path></defs><g><g><g><use xlink:href="#gZkrfUBs" opacity="1" fill="#eceef5" fill-opacity="1"></use><g><use xlink:href="#gZkrfUBs" opacity="1" fill-opacity="0" stroke="#000000" stroke-width="1" stroke-opacity="1"></use></g></g><g><g><use xlink:href="#d1JpZXvaZq" opacity="1" fill-opacity="0" stroke="#000000" stroke-width="1" stroke-opacity="1"></use></g></g><g><g><use xlink:href="#b18sPdXPiT" opacity="1" fill-opacity="0" stroke="#000000" stroke-width="1" stroke-opacity="1"></use></g></g><g><g><use xlink:href="#c4y3sfhXuZ" opacity="1" fill-opacity="0" stroke="#000000" stroke-width="1" stroke-opacity="1"></use></g></g></g></g></svg>